<svg width="34" height="35" viewBox="0 0 34 35" fill="none" xmlns="http://www.w3.org/2000/svg">
<mask id="mask0_281_468" style="mask-type:alpha" maskUnits="userSpaceOnUse" x="0" y="0" width="34" height="35">
<rect y="0.730469" width="34" height="34" fill="#D9D9D9"/>
</mask>
<g mask="url(#mask0_281_468)">
<path d="M17.0003 19.1472C18.3698 19.1472 19.5385 18.6631 20.5066 17.6951C21.4746 16.727 21.9587 15.5583 21.9587 14.1888C21.9587 12.8194 21.4746 11.6506 20.5066 10.6826C19.5385 9.71454 18.3698 9.23051 17.0003 9.23051C15.6309 9.23051 14.4621 9.71454 13.4941 10.6826C12.526 11.6506 12.042 12.8194 12.042 14.1888C12.042 15.5583 12.526 16.727 13.4941 17.6951C14.4621 18.6631 15.6309 19.1472 17.0003 19.1472ZM17.0003 31.8972C13.5531 31.0236 10.8024 29.1347 8.74824 26.2305C6.69408 23.3263 5.66699 20.068 5.66699 16.4555V7.81384L17.0003 3.56384L28.3337 7.81384V16.4555C28.3337 20.068 27.3066 23.3263 25.2524 26.2305C23.1982 29.1347 20.4475 31.0236 17.0003 31.8972ZM17.0003 28.9222C18.3934 28.4736 19.6271 27.7711 20.7014 26.8149C21.7757 25.8586 22.7142 24.7784 23.517 23.5743C22.5017 23.0548 21.4451 22.6593 20.3472 22.3878C19.2493 22.1163 18.1337 21.9805 17.0003 21.9805C15.867 21.9805 14.7514 22.1163 13.6535 22.3878C12.5555 22.6593 11.4989 23.0548 10.4837 23.5743C11.2864 24.7784 12.225 25.8586 13.2993 26.8149C14.3736 27.7711 15.6073 28.4736 17.0003 28.9222Z" fill="#1C1B1F"/>
</g>
</svg>
