<svg width="34" height="35" viewBox="0 0 34 35" fill="none" xmlns="http://www.w3.org/2000/svg">
<mask id="mask0_281_453" style="mask-type:alpha" maskUnits="userSpaceOnUse" x="0" y="0" width="34" height="35">
<rect y="0.730469" width="34" height="34" fill="#D9D9D9"/>
</mask>
<g mask="url(#mask0_281_453)">
<path d="M17.0002 30.4805L14.946 28.6388C12.5613 26.4902 10.5897 24.6367 9.03141 23.0784C7.47308 21.52 6.2335 20.1211 5.31266 18.8815C4.39183 17.6419 3.74843 16.5027 3.38245 15.4638C3.01648 14.4249 2.8335 13.3624 2.8335 12.2763C2.8335 10.0568 3.57725 8.20337 5.06475 6.71587C6.55225 5.22837 8.40572 4.48462 10.6252 4.48462C11.8529 4.48462 13.0217 4.74434 14.1314 5.26379C15.2411 5.78323 16.1974 6.51517 17.0002 7.45962C17.8029 6.51517 18.7592 5.78323 19.8689 5.26379C20.9786 4.74434 22.1474 4.48462 23.3752 4.48462C25.5946 4.48462 27.4481 5.22837 28.9356 6.71587C30.4231 8.20337 31.1668 10.0568 31.1668 12.2763C31.1668 13.3624 30.9838 14.4249 30.6179 15.4638C30.2519 16.5027 29.6085 17.6419 28.6877 18.8815C27.7668 20.1211 26.5272 21.52 24.9689 23.0784C23.4106 24.6367 21.4391 26.4902 19.0543 28.6388L17.0002 30.4805Z" fill="#1C1B1F"/>
</g>
</svg>
