<svg width="150" height="72" viewBox="0 0 150 72" fill="none" xmlns="http://www.w3.org/2000/svg">
<path d="M3.4853 53V26.8182H21.1273V31.3821H9.02081V37.6207H20.2197V42.1847H9.02081V48.4361H21.1785V53H3.4853ZM24.5317 53V49.7528L34.1454 37.8509V37.7102H24.8641V33.3636H40.7036V36.9048L31.678 48.5128V48.6534H41.036V53H24.5317ZM77.3487 35.5455C77.3487 39.3523 76.6272 42.5909 75.184 45.2614C73.7522 47.9318 71.7976 49.9716 69.3203 51.3807C66.8544 52.7784 64.0817 53.4773 61.0022 53.4773C57.8999 53.4773 55.1158 52.7727 52.6499 51.3636C50.184 49.9545 48.2351 47.9148 46.8033 45.2443C45.3715 42.5739 44.6556 39.3409 44.6556 35.5455C44.6556 31.7386 45.3715 28.5 46.8033 25.8295C48.2351 23.1591 50.184 21.125 52.6499 19.7273C55.1158 18.3182 57.8999 17.6136 61.0022 17.6136C64.0817 17.6136 66.8544 18.3182 69.3203 19.7273C71.7976 21.125 73.7522 23.1591 75.184 25.8295C76.6272 28.5 77.3487 31.7386 77.3487 35.5455ZM69.8658 35.5455C69.8658 33.0795 69.4965 31 68.7578 29.3068C68.0306 27.6136 67.0022 26.3295 65.6726 25.4545C64.3431 24.5795 62.7862 24.142 61.0022 24.142C59.2181 24.142 57.6612 24.5795 56.3317 25.4545C55.0022 26.3295 53.9681 27.6136 53.2294 29.3068C52.5022 31 52.1385 33.0795 52.1385 35.5455C52.1385 38.0114 52.5022 40.0909 53.2294 41.7841C53.9681 43.4773 55.0022 44.7614 56.3317 45.6364C57.6612 46.5114 59.2181 46.9489 61.0022 46.9489C62.7862 46.9489 64.3431 46.5114 65.6726 45.6364C67.0022 44.7614 68.0306 43.4773 68.7578 41.7841C69.4965 40.0909 69.8658 38.0114 69.8658 35.5455ZM80.8513 53V33.3636H86.1311V36.7898H86.3356C86.6936 35.571 87.2945 34.6506 88.1382 34.0284C88.982 33.3977 89.9535 33.0824 91.053 33.0824C91.3257 33.0824 91.6197 33.0994 91.9351 33.1335C92.2504 33.1676 92.5274 33.2145 92.766 33.2741V38.1065C92.5104 38.0298 92.1567 37.9616 91.705 37.902C91.2533 37.8423 90.8399 37.8125 90.4649 37.8125C89.6638 37.8125 88.9479 37.9872 88.3172 38.3366C87.695 38.6776 87.2007 39.1548 86.8342 39.7685C86.4763 40.3821 86.2973 41.0895 86.2973 41.8906V53H80.8513ZM101.111 53.3196C99.62 53.3196 98.2691 52.9361 97.0589 52.169C95.8572 51.3935 94.9027 50.2557 94.1953 48.7557C93.4964 47.2472 93.147 45.3977 93.147 43.2074C93.147 40.9574 93.5092 39.0866 94.2336 37.5952C94.9581 36.0952 95.9211 34.9744 97.1228 34.233C98.3331 33.483 99.6584 33.108 101.099 33.108C102.198 33.108 103.114 33.2955 103.847 33.6705C104.589 34.0369 105.185 34.4972 105.637 35.0511C106.097 35.5966 106.447 36.1335 106.685 36.6619H106.852V26.8182H112.285V53H106.915V49.8551H106.685C106.43 50.4006 106.067 50.9418 105.599 51.4787C105.138 52.0071 104.538 52.446 103.796 52.7955C103.063 53.1449 102.168 53.3196 101.111 53.3196ZM102.837 48.9858C103.715 48.9858 104.457 48.7472 105.062 48.2699C105.675 47.7841 106.144 47.1065 106.468 46.2372C106.8 45.3679 106.967 44.3494 106.967 43.1818C106.967 42.0142 106.805 41 106.481 40.1392C106.157 39.2784 105.688 38.6136 105.075 38.1449C104.461 37.6761 103.715 37.4418 102.837 37.4418C101.942 37.4418 101.188 37.6847 100.575 38.1705C99.9609 38.6562 99.4964 39.3295 99.1811 40.1903C98.8657 41.0511 98.7081 42.0483 98.7081 43.1818C98.7081 44.3239 98.8657 45.3338 99.1811 46.2116C99.5049 47.081 99.9694 47.7628 100.575 48.2571C101.188 48.7429 101.942 48.9858 102.837 48.9858ZM124.919 53.3835C122.899 53.3835 121.161 52.9744 119.703 52.1562C118.254 51.3295 117.138 50.1619 116.354 48.6534C115.57 47.1364 115.178 45.3423 115.178 43.2713C115.178 41.2514 115.57 39.4787 116.354 37.9531C117.138 36.4276 118.242 35.2386 119.665 34.3864C121.097 33.5341 122.776 33.108 124.702 33.108C125.997 33.108 127.203 33.3168 128.32 33.7344C129.445 34.1435 130.425 34.7614 131.26 35.5881C132.104 36.4148 132.76 37.4545 133.229 38.7074C133.698 39.9517 133.932 41.4091 133.932 43.0795V44.5753H117.351V41.2003H128.806C128.806 40.4162 128.635 39.7216 128.294 39.1165C127.953 38.5114 127.48 38.0384 126.875 37.6974C126.279 37.348 125.584 37.1733 124.791 37.1733C123.965 37.1733 123.232 37.3651 122.593 37.7486C121.962 38.1236 121.468 38.6307 121.11 39.2699C120.752 39.9006 120.568 40.6037 120.56 41.3793V44.5881C120.56 45.5597 120.739 46.3991 121.097 47.1065C121.463 47.8139 121.979 48.3594 122.644 48.7429C123.308 49.1264 124.097 49.3182 125.009 49.3182C125.614 49.3182 126.168 49.233 126.671 49.0625C127.174 48.892 127.604 48.6364 127.962 48.2955C128.32 47.9545 128.593 47.5369 128.78 47.0426L133.817 47.375C133.561 48.5852 133.037 49.642 132.245 50.5455C131.46 51.4403 130.446 52.1392 129.202 52.642C127.966 53.1364 126.539 53.3835 124.919 53.3835ZM136.694 53V33.3636H141.974V36.7898H142.178C142.536 35.571 143.137 34.6506 143.981 34.0284C144.825 33.3977 145.796 33.0824 146.896 33.0824C147.168 33.0824 147.462 33.0994 147.778 33.1335C148.093 33.1676 148.37 33.2145 148.609 33.2741V38.1065C148.353 38.0298 147.999 37.9616 147.548 37.902C147.096 37.8423 146.683 37.8125 146.308 37.8125C145.507 37.8125 144.791 37.9872 144.16 38.3366C143.538 38.6776 143.043 39.1548 142.677 39.7685C142.319 40.3821 142.14 41.0895 142.14 41.8906V53H136.694Z" fill="#D3AE2C"/>
<path d="M45.8469 29.0262C41.3499 37.3053 55.8989 44.4806 62.7767 50C68.0672 43.6527 79.1773 31.2339 73.3577 24.8866C67.5507 18.5529 61.7185 24.1507 59.8668 27.3704C59.7787 27.3704 59.1791 27.0944 57.4861 25.9905C55.3699 24.6106 49.5944 22.1269 45.8469 29.0262Z" fill="#D3AE2C" stroke="black" stroke-width="6"/>
</svg>
