<svg width="34" height="35" viewBox="0 0 34 35" fill="none" xmlns="http://www.w3.org/2000/svg">
<path d="M9.91699 26.2305C8.35866 26.2305 7.09783 27.5055 7.09783 29.0638C7.09783 30.6222 8.35866 31.8972 9.91699 31.8972C11.4753 31.8972 12.7503 30.6222 12.7503 29.0638C12.7503 27.5055 11.4753 26.2305 9.91699 26.2305ZM1.41699 4.98051C1.41699 5.75968 2.05449 6.39718 2.83366 6.39718H4.25033L9.35033 17.1497L7.43783 20.6063C6.40366 22.5047 7.76366 24.8138 9.91699 24.8138H25.5003C26.2795 24.8138 26.917 24.1763 26.917 23.3972C26.917 22.618 26.2795 21.9805 25.5003 21.9805H9.91699L11.4753 19.1472H22.0295C23.092 19.1472 24.027 18.5663 24.5087 17.688L29.5803 8.49384C30.1045 7.55884 29.4245 6.39718 28.3478 6.39718H7.38116L6.43199 4.37134C6.20533 3.87551 5.69533 3.56384 5.15699 3.56384H2.83366C2.05449 3.56384 1.41699 4.20134 1.41699 4.98051ZM24.0837 26.2305C22.5253 26.2305 21.2645 27.5055 21.2645 29.0638C21.2645 30.6222 22.5253 31.8972 24.0837 31.8972C25.642 31.8972 26.917 30.6222 26.917 29.0638C26.917 27.5055 25.642 26.2305 24.0837 26.2305Z" fill="#050505"/>
</svg>
